<svg width="44" height="44" viewBox="0 0 44 44" fill="none" xmlns="http://www.w3.org/2000/svg">
<path fill-rule="evenodd" clip-rule="evenodd" d="M10 15.75C10 15.3358 10.3358 15 10.75 15H26.75C27.1642 15 27.5 15.3358 27.5 15.75C27.5 16.1642 27.1642 16.5 26.75 16.5H10.75C10.3358 16.5 10 16.1642 10 15.75Z" fill="#769763"/>
<path fill-rule="evenodd" clip-rule="evenodd" d="M16 21.75C16 21.3358 16.3358 21 16.75 21H32.75C33.1642 21 33.5 21.3358 33.5 21.75C33.5 22.1642 33.1642 22.5 32.75 22.5H16.75C16.3358 22.5 16 22.1642 16 21.75Z" fill="#769763"/>
<path fill-rule="evenodd" clip-rule="evenodd" d="M10 27.75C10 27.3358 10.3358 27 10.75 27H26.75C27.1642 27 27.5 27.3358 27.5 27.75C27.5 28.1642 27.1642 28.5 26.75 28.5H10.75C10.3358 28.5 10 28.1642 10 27.75Z" fill="#769763"/>
</svg>
