<svg width="44" height="40" viewBox="0 0 44 40" fill="none" xmlns="http://www.w3.org/2000/svg">
<path fill-rule="evenodd" clip-rule="evenodd" d="M13 13.6833C13 13.2691 13.3358 12.9333 13.75 12.9333H29.75C30.1642 12.9333 30.5 13.2691 30.5 13.6833C30.5 14.0976 30.1642 14.4333 29.75 14.4333H13.75C13.3358 14.4333 13 14.0976 13 13.6833Z" fill="#769763"/>
<path fill-rule="evenodd" clip-rule="evenodd" d="M13 19.6833C13 19.2691 13.3358 18.9333 13.75 18.9333H29.75C30.1642 18.9333 30.5 19.2691 30.5 19.6833C30.5 20.0976 30.1642 20.4333 29.75 20.4333H13.75C13.3358 20.4333 13 20.0976 13 19.6833Z" fill="#769763"/>
<path fill-rule="evenodd" clip-rule="evenodd" d="M13 25.6833C13 25.2691 13.3358 24.9333 13.75 24.9333H29.75C30.1642 24.9333 30.5 25.2691 30.5 25.6833C30.5 26.0976 30.1642 26.4333 29.75 26.4333H13.75C13.3358 26.4333 13 26.0976 13 25.6833Z" fill="#769763"/>
</svg>
